<?xml version="1.0" encoding="UTF-8"?>
<svg version="1.1" xmlns="http://www.w3.org/2000/svg" width="257" height="148">
<path d="M0 0 C84.81 0 169.62 0 257 0 C257 48.84 257 97.68 257 148 C172.19 148 87.38 148 0 148 C0 99.16 0 50.32 0 0 Z " fill="#02B3BC" transform="translate(0,0)"/>
<path d="M0 0 C3.60481754 3.0162759 4.75615069 5.11604627 6 9.625 C6 13 6 13 4.5625 15.4375 C4.046875 15.953125 3.53125 16.46875 3 17 C5.11364811 21.38722948 5.11364811 21.38722948 9.12890625 23.7734375 C10.67185726 24.08355286 12.22347438 24.35406138 13.78125 24.578125 C16 25 16 25 20 27 C20 30.96 20 34.92 20 39 C17.69 39 15.38 39 13 39 C12.34 36.36 11.68 33.72 11 31 C6.36779569 30.53677957 2.38937368 30.15276312 -1.4375 33.125 C-5.92592618 38.16079522 -6.40750276 42.93238536 -6.25 49.46875 C-5.74068169 54.62559789 -4.23091409 58.46135738 -1 62.5 C3.56150901 64.78075451 7.99350077 64.31564619 13 64 C13.33 61.36 13.66 58.72 14 56 C15.98 56 17.96 56 20 56 C20 59.63 20 63.26 20 67 C12.30869713 70.90669352 6.26697764 72.5753088 -2.125 69.875 C-8.81785915 67.00853642 -13.08770082 62.76359682 -16.21484375 56.24047852 C-17.55007527 52.43033558 -17.34551055 48.79839531 -17.125 44.8125 C-16.74319468 37.6940816 -16.74319468 37.6940816 -19 31 C-20.2375 31.2475 -21.475 31.495 -22.75 31.75 C-25.9141959 32.13217641 -26.71205309 32.16855429 -29.5625 30.5 C-31.14693364 27.74446323 -31.34035266 26.16423635 -30.671875 23.0625 C-27.24984417 12.55766118 -22.12259356 7.87900474 -13 2 C-8.76241948 -0.82505368 -4.97224799 -0.89611487 0 0 Z " fill="#06B5BD" transform="translate(42,44)"/>
<path d="M0 0 C0.33 9.57 0.66 19.14 1 29 C3.97 25.535 3.97 25.535 7 22 C6.01 22 5.02 22 4 22 C4 20.35 4 18.7 4 17 C9.61 17 15.22 17 21 17 C21 18.65 21 20.3 21 22 C20.45730469 22.18175781 19.91460937 22.36351563 19.35546875 22.55078125 C18.64003906 22.80214844 17.92460937 23.05351563 17.1875 23.3125 C16.12595703 23.67794922 16.12595703 23.67794922 15.04296875 24.05078125 C12.77119075 25.10631099 11.4608518 25.95674881 10 28 C10.18358366 31.75149215 12.53232201 34.5817837 14.5625 37.625 C18 42.78470825 18 42.78470825 18 45 C21.63 44.67 25.26 44.34 29 44 C29 32.78 29 21.56 29 10 C27.02 10 25.04 10 23 10 C23 8.02 23 6.04 23 4 C29.93 4 36.86 4 44 4 C44 5.98 44 7.96 44 10 C42.02 10 40.04 10 38 10 C38 21.22 38 32.44 38 44 C41.96 44 45.92 44 50 44 C50.144375 42.700625 50.28875 41.40125 50.4375 40.0625 C50.875 36.125 50.875 36.125 52 35 C53.98 35 55.96 35 58 35 C58 39.95 58 44.9 58 50 C51.59586202 50.32257371 45.1964872 50.55774949 38.78613281 50.71411133 C36.60886266 50.77930003 34.43215773 50.86788568 32.25683594 50.98071289 C14.47422312 51.87960526 14.47422312 51.87960526 10.26513672 48.68206787 C7.91181939 45.89286999 6.68674043 43.21506847 5.31445312 39.81518555 C4.88068359 38.88617432 4.44691406 37.95716309 4 37 C2.68 37 1.36 37 0 37 C0.33 39.31 0.66 41.62 1 44 C2.65 44.33 4.3 44.66 6 45 C6 46.65 6 48.3 6 50 C-0.27 50 -6.54 50 -13 50 C-13 48.35 -13 46.7 -13 45 C-11.35 45 -9.7 45 -8 45 C-8 32.79 -8 20.58 -8 8 C-9.65 8 -11.3 8 -13 8 C-13 6.35 -13 4.7 -13 3 C-11.39743892 2.49487756 -9.79288208 1.99608373 -8.1875 1.5 C-7.29417969 1.2215625 -6.40085938 0.943125 -5.48046875 0.65625 C-3 0 -3 0 0 0 Z " fill="#A4F5FA" transform="translate(146,64)"/>
<path d="M0 0 C4.699919 1.97520048 7.65273882 4.55516994 10.10546875 9.03515625 C12.00663714 14.25900886 12.04335872 19.50843545 10.0703125 24.71484375 C7.28813476 29.67839674 4.2032867 32.24092999 -1.04296875 34.375 C-6.91700189 35.21414759 -10.4265066 34.33820849 -15.27734375 30.91015625 C-19.0116775 27.66326872 -20.68404294 24.66187014 -21.453125 19.76171875 C-21.76476533 13.9843864 -21.02969888 9.74869739 -17.59375 5.03515625 C-12.7132226 -0.18958971 -7.00556785 -2.14319475 0 0 Z " fill="#A3F5F9" transform="translate(121.04296875,80.625)"/>
<path d="M0 0 C4.79542592 2.67300593 8.21976309 5.78196454 9.859375 11.11328125 C10.74612018 17.44280719 10.06284435 22.59005824 6.859375 28.11328125 C4.421875 30.42578125 4.421875 30.42578125 1.859375 32.11328125 C1.26125 32.52578125 0.663125 32.93828125 0.046875 33.36328125 C-4.27594006 34.84538927 -8.16107787 34.96720354 -12.33203125 33.16796875 C-17.14984715 30.34648541 -19.8245413 27.58295646 -21.828125 22.30078125 C-22.71036119 16.12512794 -22.60397313 11.43077245 -19.53125 5.9453125 C-14.71493265 -0.39977974 -7.44921763 -3.08571606 0 0 Z " fill="#A3F5F9" transform="translate(87.140625,80.88671875)"/>
<path d="M0 0 C0.86625 0.495 1.7325 0.99 2.625 1.5 C2.625 5.46 2.625 9.42 2.625 13.5 C0.315 13.5 -1.995 13.5 -4.375 13.5 C-5.035 10.86 -5.695 8.22 -6.375 5.5 C-11.00720431 5.03677957 -14.98562632 4.65276312 -18.8125 7.625 C-23.30092618 12.66079522 -23.78250276 17.43238536 -23.625 23.96875 C-23.11568169 29.12559789 -21.60591409 32.96135738 -18.375 37 C-13.81349099 39.28075451 -9.38149923 38.81564619 -4.375 38.5 C-4.045 35.86 -3.715 33.22 -3.375 30.5 C-1.395 30.5 0.585 30.5 2.625 30.5 C2.625 34.13 2.625 37.76 2.625 41.5 C-5.06630287 45.40669352 -11.10802236 47.0753088 -19.5 44.375 C-25.88425098 41.64070924 -30.89702459 37.23895267 -33.7109375 30.828125 C-35.64293853 24.05475668 -35.22258831 17.52333986 -32.3125 11.125 C-25.67698673 -0.60025356 -12.82649157 -5.55726842 0 0 Z " fill="#A4F5F9" transform="translate(59.375,69.5)"/>
<path d="M0 0 C1.98 0 3.96 0 6 0 C6 2.64 6 5.28 6 8 C8.97 8 11.94 8 15 8 C15 9.98 15 11.96 15 14 C12.03 14 9.06 14 6 14 C6.33 21.26 6.66 28.52 7 36 C8.32 35.34 9.64 34.68 11 34 C11.99 34 12.98 34 14 34 C14.33 35.32 14.66 36.64 15 38 C12.14979467 40.76383547 10.46655624 41.92501775 6.5 42.5625 C3 42 3 42 0.30078125 40.203125 C-3.16476772 35.37842185 -2.54194102 30.96588382 -2.3125 25.1875 C-2.28994141 24.11306641 -2.26738281 23.03863281 -2.24414062 21.93164062 C-2.18535598 19.2863315 -2.10323957 16.64388587 -2 14 C-3.65 14 -5.3 14 -7 14 C-7 12.35 -7 10.7 -7 9 C-5.35 8.67 -3.7 8.34 -2 8 C-1.34 5.36 -0.68 2.72 0 0 Z " fill="#A7F7FB" transform="translate(231,73)"/>
<path d="M0 0 C3.60481754 3.0162759 4.75615069 5.11604627 6 9.625 C6 13 6 13 4.5625 15.4375 C4.046875 15.953125 3.53125 16.46875 3 17 C4.32 19.31 5.64 21.62 7 24 C6.02160156 24.14695312 6.02160156 24.14695312 5.0234375 24.296875 C-1.84517211 25.47203535 -6.3487004 27.20140598 -11.25 32.375 C-13.12090564 35.18135846 -14.09648838 37.76241669 -15 41 C-15.33 41 -15.66 41 -16 41 C-17.12880057 37.68885166 -18.21302675 34.41021743 -19 31 C-20.2375 31.2475 -21.475 31.495 -22.75 31.75 C-25.9141959 32.13217641 -26.71205309 32.16855429 -29.5625 30.5 C-31.14693364 27.74446323 -31.34035266 26.16423635 -30.671875 23.0625 C-27.24984417 12.55766118 -22.12259356 7.87900474 -13 2 C-8.76241948 -0.82505368 -4.97224799 -0.89611487 0 0 Z M-14 5 C-16.18702362 7.98893229 -17 9.27944454 -17 13 C-17.66 13 -18.32 13 -19 13 C-18.34 11.02 -17.68 9.04 -17 7 C-20.97436316 9.09758056 -23.59527117 11.17024667 -26 15 C-26.33513594 18.20980136 -26.33513594 18.20980136 -26 21 C-26.66 21 -27.32 21 -28 21 C-29.40432936 22.17718985 -29.40432936 22.17718985 -29.125 25.5 C-29.40432936 28.82281015 -29.40432936 28.82281015 -28 30 C-26.00041636 30.04080783 -23.99954746 30.04254356 -22 30 C-22.66 29.67 -23.32 29.34 -24 29 C-24 28.34 -24 27.68 -24 27 C-21.525 27.99 -21.525 27.99 -19 29 C-17.94729537 26.36893239 -17.94729537 26.36893239 -18 25 C-16.68 24.67 -15.36 24.34 -14 24 C-14.33 23.01 -14.66 22.02 -15 21 C-14.34 21 -13.68 21 -13 21 C-12.67 21.66 -12.34 22.32 -12 23 C-11.34 22.01 -10.68 21.02 -10 20 C-7.375 19.3125 -7.375 19.3125 -5 19 C-5.61277612 16.03824877 -6.25372522 14.61941217 -8 12 C-5 14 -5 14 -4 17 C-2.68 16.34 -1.36 15.68 0 15 C-0.26656572 12.06556598 -0.26656572 12.06556598 -1 9 C-1.99 8.34 -2.98 7.68 -4 7 C-1.00675737 8.0975223 -0.15389099 8.67682892 1.25 11.625 C1.4975 12.40875 1.745 13.1925 2 14 C2.66 13.67 3.32 13.34 4 13 C4.35671933 9.16526716 4.29771416 7.44657125 2.125 4.1875 C-0.35423909 1.63534212 -1.23654819 1.08675589 -4.75 0.6875 C-8.88596145 1.0851886 -10.80913737 2.37640184 -14 5 Z " fill="#68DFE3" transform="translate(42,44)"/>
<path d="M0 0 C0.33 8.91 0.66 17.82 1 27 C2.32 27.33 3.64 27.66 5 28 C5 29.65 5 31.3 5 33 C-0.94 33 -6.88 33 -13 33 C-13 31.35 -13 29.7 -13 28 C-11.35 28 -9.7 28 -8 28 C-8 21.4 -8 14.8 -8 8 C-9.65 8 -11.3 8 -13 8 C-13 6.35 -13 4.7 -13 3 C-11.40084119 2.30093058 -9.79544955 1.61610532 -8.1875 0.9375 C-7.29417969 0.55464844 -6.40085938 0.17179687 -5.48046875 -0.22265625 C-3 -1 -3 -1 0 0 Z " fill="#A5F6FA" transform="translate(219,81)"/>
<path d="M0 0 C3 0.625 3 0.625 5.375 2.375 C7.829432 7.28386401 7.79558601 12.23508396 7 17.625 C5.83182475 19.86789648 4.79239438 21.83260562 3 23.625 C-2.35674677 24.09080407 -2.35674677 24.09080407 -4.8125 22.3125 C-8.17783568 17.53018088 -7.53282566 11.19340342 -7 5.625 C-5.06583099 1.75666198 -4.21133474 0.8773614 0 0 Z " fill="#05B4BD" transform="translate(116,85.375)"/>
<path d="M0 0 C3.1875 0.375 3.1875 0.375 5.5625 2.125 C8.016932 7.03386401 7.98308601 11.98508396 7.1875 17.375 C6.01932475 19.61789648 4.97989438 21.58260562 3.1875 23.375 C-2.16924677 23.84080407 -2.16924677 23.84080407 -4.625 22.0625 C-7.833246 17.50341358 -7.27160992 11.69756244 -6.8125 6.375 C-4.13352273 0.55113636 -4.13352273 0.55113636 0 0 Z " fill="#05B4BD" transform="translate(80.8125,85.625)"/>
<path d="M0 0 C3.41158256 1.13719419 4.11854601 2.04342944 6 5 C6 5.66 6 6.32 6 7 C4.80375 7.2475 3.6075 7.495 2.375 7.75 C-4.64085349 9.53180406 -8.69600538 13.43012461 -13 19 C-16.91623037 15.79581152 -16.91623037 15.79581152 -17.25 12.625 C-14.90978049 7.71053903 -10.05293008 4.91241337 -5.1875 2.75 C-4.465625 2.5025 -3.74375 2.255 -3 2 C-2.01 1.34 -1.02 0.68 0 0 Z " fill="#09B6BE" transform="translate(41,61)"/>
<path d="M0 0 C2.0625 0.4375 2.0625 0.4375 4 1 C4.33 3.64 4.66 6.28 5 9 C5.66 9 6.32 9 7 9 C7.66 6.36 8.32 3.72 9 1 C10.18795873 5.7518349 9.03204451 8.00364756 7.125 12.25 C4.73977663 17.57590972 3.50591821 22.16248224 3 28 C2.34 27.01 1.68 26.02 1 25 C0.67 26.32 0.34 27.64 0 29 C-1 28 -1 28 -1.25 24.9375 C-1.03995096 21.62922761 -0.78290474 20.13729902 0.4375 17.25 C2.49784431 12.31294853 2.71774692 7.29467855 3 2 C1.68 1.67 0.36 1.34 -1 1 C-0.67 0.67 -0.34 0.34 0 0 Z " fill="#1EBEC6" transform="translate(207,33)"/>
<path d="M0 0 C3 0.25 3 0.25 5 2.25 C5.25 5.25 5.25 5.25 5 8.25 C3 10.25 3 10.25 0.0625 10.5625 C-3 10.25 -3 10.25 -4.9375 9.0625 C-6 7.25 -6 7.25 -5.8125 4.6875 C-4.61374094 1.09122283 -3.8124642 0.31770535 0 0 Z " fill="#A5F6FA" transform="translate(215,65.75)"/>
<path d="M0 0 C0.66 0.33 1.32 0.66 2 1 C2 6.33333333 2 11.66666667 2 17 C2.33 17.66 2.66 18.32 3 19 C2.00390625 21.1640625 2.00390625 21.1640625 0.5625 23.625 C0.08941406 24.44226563 -0.38367188 25.25953125 -0.87109375 26.1015625 C-1.24363281 26.72804688 -1.61617187 27.35453125 -2 28 C-4 25 -4 25 -3.8125 22.75 C-3 20 -3 20 -1.4375 17 C1.00022868 11.68669817 0.23169456 5.70655123 0 0 Z M-6 25 C-5.34 25.33 -4.68 25.66 -4 26 C-5.32 26.99 -6.64 27.98 -8 29 C-7.34 27.68 -6.68 26.36 -6 25 Z " fill="#19BCC4" transform="translate(224,15)"/>
</svg>
